<?xml version="1.0" encoding="utf-8"?>
<!-- Generator: Adobe Illustrator 21.1.0, SVG Export Plug-In . SVG Version: 6.00 Build 0)  -->
<svg version="1.1" id="Layer_1" xmlns="http://www.w3.org/2000/svg" xmlns:xlink="http://www.w3.org/1999/xlink" x="0px" y="0px"
	 viewBox="0 0 329 314" style="enable-background:new 0 0 329 314;" xml:space="preserve">
<style type="text/css">
	.st0{fill:#FFFFFF;}
</style>
<g>
	<polygon class="st0" points="164.5,259.5 63.4,312.7 82.7,200.1 0.9,120.3 113.9,103.9 164.5,1.4 215.1,103.9 328.1,120.3 
		246.3,200.1 265.6,312.7 	"/>
	<path d="M164.5,2.6l50,101.3l0.2,0.5l0.5,0.1l111.8,16.2l-80.9,78.9l-0.4,0.4l0.1,0.5L265,311.8l-100-52.6l-0.5-0.2l-0.5,0.2
		L64,311.8l19.1-111.4l0.1-0.5l-0.4-0.4L1.9,120.7l111.8-16.2l0.5-0.1l0.2-0.5L164.5,2.6 M164.5,0.3l-50.9,103.1L-0.2,120l82.4,80.3
		L62.7,313.6l101.8-53.5l101.8,53.5l-19.4-113.3l82.4-80.3l-113.8-16.5L164.5,0.3L164.5,0.3z"/>
</g>
</svg>
